<svg xmlns:xlink="http://www.w3.org/1999/xlink" xmlns="http://www.w3.org/2000/svg" width="32" height="32" viewBox="0 0 32 32" fill="none" style="margin-bottom: 6px;"><rect width="32" height="32" rx="8" fill="#F5F5F5"></rect><rect x="5.80566" y="10.1655" width="23.2493" height="13.7773" rx="3" fill="#D8EFFE"></rect><path d="M27.333 19.2069V14.4434C27.333 11.6149 27.333 10.2007 26.4543 9.32204C25.5756 8.44336 24.1614 8.44336 21.333 8.44336H9.22266C6.39423 8.44336 4.98002 8.44336 4.10134 9.32204C3.22266 10.2007 3.22266 11.6149 3.22266 14.4434V16.2207C3.22266 19.0491 3.22266 20.4633 4.10134 21.342C4.98002 22.2207 6.39423 22.2207 9.22266 22.2207H20.0138H23.0276" stroke="#1F1F1F" stroke-linecap="round" fill="none"></path><path d="M12.8623 13.6385H18.3774" stroke="#1162F2" stroke-width="1.2px" stroke-linecap="round" stroke-linejoin="round" fill="none"></path><path d="M12.8623 11.5405H18.3774" stroke="#1162F2" stroke-width="1.2px" stroke-linecap="round" stroke-linejoin="round" fill="none"></path><path d="M14.4134 11.5405C15.0076 11.5405 15.5775 11.7766 15.9977 12.1968C16.4179 12.6169 16.6539 13.1868 16.6539 13.781C16.6539 14.3752 16.4179 14.9451 15.9977 15.3653C15.5775 15.7855 15.0076 16.0215 14.4134 16.0215H12.8623L16.6539 19.4684" stroke="#1162F2" stroke-width="1.2px" stroke-linecap="round" stroke-linejoin="round" fill="none"></path></svg>