<svg xmlns:xlink="http://www.w3.org/1999/xlink" xmlns="http://www.w3.org/2000/svg" width="32" height="32" viewBox="0 0 32 32" fill="none" style="margin-bottom: 6px;"><g clip-path="url(#CustomerSupport_a)" fill="none"><path d="M0 16C0 8.45753 0 4.68629 2.34315 2.34315C4.68629 0 8.45753 0 16 0V0C23.5425 0 27.3137 0 29.6569 2.34315C32 4.68629 32 8.45753 32 16V16C32 23.5425 32 27.3137 29.6569 29.6569C27.3137 32 23.5425 32 16 32V32C8.45753 32 4.68629 32 2.34315 29.6569C0 27.3137 0 23.5425 0 16V16Z" fill="#F5F5F5"></path><path d="M0 8C0 4.22876 0 2.34315 1.17157 1.17157C2.34315 0 4.22876 0 8 0H24C27.7712 0 29.6569 0 30.8284 1.17157C32 2.34315 32 4.22876 32 8V24C32 27.7712 32 29.6569 30.8284 30.8284C29.6569 32 27.7712 32 24 32H8C4.22876 32 2.34315 32 1.17157 30.8284C0 29.6569 0 27.7712 0 24V8Z" fill="#F5F5F5"></path><path d="M15 25C19.4183 25 23 21.4183 23 17C23 12.5817 19.4183 9 15 9C10.5817 9 7 12.5817 7 17C7 21.4183 10.5817 25 15 25Z" fill="#D8EFFE"></path><path d="M7.56425 9.07804C11.3989 5.26416 17.6088 4.99169 21.7989 8.56199M22.9809 23.3641C19.4106 27.5541 13.2361 28.2707 8.84482 25.1137" stroke="#1F1F1F" stroke-width="1.2px" stroke-linecap="round" stroke-linejoin="round" fill="none"></path><path d="M1.03604 20L1.31729 18.2955L5.02468 15.6023C5.27184 15.4233 5.48491 15.2557 5.66389 15.0994C5.8457 14.9403 5.99201 14.777 6.10281 14.6094C6.2136 14.4418 6.28604 14.2557 6.32014 14.0511C6.35707 13.8267 6.34002 13.6349 6.269 13.4759C6.20082 13.3139 6.09002 13.1903 5.93661 13.1051C5.7832 13.0199 5.59854 12.9773 5.38264 12.9773C5.16389 12.9773 4.9636 13.0213 4.78178 13.1094C4.59996 13.1974 4.44798 13.3267 4.32582 13.4972C4.2065 13.6676 4.12695 13.875 4.08718 14.1193H1.83718C1.93945 13.5057 2.16531 12.9773 2.51474 12.5341C2.86701 12.0909 3.31303 11.75 3.85281 11.5114C4.39542 11.2727 5.00479 11.1534 5.68093 11.1534C6.37979 11.1534 6.96786 11.2656 7.44513 11.4901C7.92241 11.7116 8.26758 12.0241 8.48065 12.4276C8.69656 12.831 8.75763 13.304 8.66388 13.8466C8.60707 14.1818 8.48065 14.5142 8.28462 14.8438C8.09144 15.1733 7.78036 15.5398 7.35138 15.9432C6.92525 16.3438 6.33434 16.821 5.57866 17.375L4.64968 18.0568L4.64116 18.108H8.05025L7.73491 20H1.03604ZM8.74272 18.6364L9.04954 16.7955L13.4814 11.2727H15.1518L14.7427 13.7273H13.7882L11.4018 16.7273L11.3848 16.7955H16.5666L16.2598 18.6364H8.74272ZM12.7654 20L13.0893 18.0739L13.2768 17.2727L14.2654 11.2727H16.4814L15.0325 20H12.7654Z" fill="#1162F2"></path><path d="M22.764 20L27.3152 13.2159L27.3322 13.1648H23.3095L23.6163 11.2727H30.0936L29.7868 13.1648L25.2015 20H22.764Z" fill="#1162F2"></path><g clip-path="url(#CustomerSupport_b)" fill="none"><path d="M22.25 13.75L17.75 18.25" stroke="#000000" stroke-linecap="round" stroke-linejoin="round" fill="none"></path><path d="M22.25 18.25L17.75 13.75" stroke="#000000" stroke-linecap="round" stroke-linejoin="round" fill="none"></path></g></g><defs><clipPath id="CustomerSupport_a"><path d="M0 16C0 8.45753 0 4.68629 2.34315 2.34315C4.68629 0 8.45753 0 16 0V0C23.5425 0 27.3137 0 29.6569 2.34315C32 4.68629 32 8.45753 32 16V16C32 23.5425 32 27.3137 29.6569 29.6569C27.3137 32 23.5425 32 16 32V32C8.45753 32 4.68629 32 2.34315 29.6569C0 27.3137 0 23.5425 0 16V16Z" fill="white"></path></clipPath><clipPath id="CustomerSupport_b"><rect width="8" height="8" fill="white" transform="translate(16 12)"></rect></clipPath></defs></svg>