<svg xmlns:xlink="http://www.w3.org/1999/xlink" xmlns="http://www.w3.org/2000/svg" width="32" height="32" viewBox="0 0 32 32" fill="none" style="margin-bottom: 6px;"><path d="M0 16C0 8.45753 0 4.68629 2.34315 2.34315C4.68629 0 8.45753 0 16 0C23.5425 0 27.3137 0 29.6569 2.34315C32 4.68629 32 8.45753 32 16C32 23.5425 32 27.3137 29.6569 29.6569C27.3137 32 23.5425 32 16 32C8.45753 32 4.68629 32 2.34315 29.6569C0 27.3137 0 23.5425 0 16Z" fill="#F5F5F5"></path><path d="M17.1919 28.8415C23.763 28.8415 29.0899 23.5146 29.0899 16.9435C29.0899 10.3724 23.763 5.04553 17.1919 5.04553C10.6209 5.04553 5.29395 10.3724 5.29395 16.9435C5.29395 23.5146 10.6209 28.8415 17.1919 28.8415Z" fill="#D8EFFE"></path><path d="M27.4501 15.1512C27.4501 8.58018 22.1233 3.2533 15.5522 3.2533C8.98118 3.2533 3.6543 8.58018 3.6543 15.1512C3.6543 21.7223 8.98118 27.0491 15.5522 27.0491C18.1088 27.0491 20.477 26.2428 22.4164 24.8706" stroke="#1F1F1F" stroke-width="1.2px" stroke-linecap="round" stroke-linejoin="round" fill="none"></path><path d="M27.7852 16.7565C27.6346 17.0174 27.5593 17.1478 27.4463 17.1478C27.3333 17.1478 27.258 17.0174 27.1074 16.7565L25.5736 14.1C25.423 13.8391 25.3477 13.7086 25.4042 13.6108C25.4607 13.513 25.6113 13.513 25.9125 13.513L28.9801 13.513C29.2813 13.513 29.4319 13.513 29.4884 13.6108C29.5449 13.7086 29.4696 13.8391 29.319 14.1L27.7852 16.7565Z" fill="#1F1F1F"></path><g clip-path="url(#ServiceCenterReplacement_a)" fill="none"><path d="M10.5893 18.1306C10.3131 17.6547 10.1014 17.1442 9.95996 16.6125L11.0087 15.3C10.9968 15.0993 10.9968 14.8981 11.0087 14.6975L9.96059 13.385C10.1018 12.8531 10.313 12.3424 10.5887 11.8662L12.2581 11.6787C12.3914 11.5285 12.5335 11.3864 12.6837 11.2531L12.8712 9.58434C13.3467 9.30996 13.8566 9.09999 14.3875 8.95996L15.7 10.0087C15.9006 9.99684 16.1018 9.99684 16.3025 10.0087L17.615 8.96059C18.1468 9.1018 18.6575 9.31302 19.1337 9.58871L19.3212 11.2581C19.4714 11.3914 19.6135 11.5335 19.7468 11.6837L21.4156 11.8712C21.6919 12.3471 21.9035 12.8576 22.045 13.3893L20.9962 14.7018C21.0081 14.9025 21.0081 15.1037 20.9962 15.3043L22.0443 16.6168C21.9041 17.1485 21.6939 17.6592 21.4193 18.1356L19.75 18.3231C19.6167 18.4733 19.4745 18.6154 19.3243 18.7487L19.1368 20.4175C18.661 20.6937 18.1505 20.9054 17.6187 21.0468L16.3062 19.9981C16.1056 20.01 15.9044 20.01 15.7037 19.9981L14.3912 21.0462C13.8595 20.906 13.3488 20.6958 12.8725 20.4212L12.685 18.7518C12.5348 18.6185 12.3926 18.4764 12.2593 18.3262L10.5893 18.1306Z" fill="#1162F2"></path><path d="M16 17.5C17.3807 17.5 18.5 16.3807 18.5 15C18.5 13.6193 17.3807 12.5 16 12.5C14.6193 12.5 13.5 13.6193 13.5 15C13.5 16.3807 14.6193 17.5 16 17.5Z" stroke="#D8EFFE" stroke-linecap="round" stroke-linejoin="round" fill="none"></path></g><defs><clipPath id="ServiceCenterReplacement_a"><rect width="16" height="16" fill="white" transform="translate(8 7)"></rect></clipPath></defs></svg>